Coordinates
version=1
nRows=24
nColumns=24
inDegrees=yes

Units are S.I. units (second, meters, Newtons, ...)
Angles are in degrees.

endheader
time	pelvis_tilt	pelvis_list	pelvis_rotation	pelvis_tx	pelvis_ty	pelvis_tz	hip_flexion_r	hip_adduction_r	hip_rotation_r	knee_angle_r	ankle_angle_r	subtalar_angle_r	mtp_angle_r	hip_flexion_l	hip_adduction_l	hip_rotation_l	knee_angle_l	ankle_angle_l	subtalar_angle_l	mtp_angle_l	lumbar_extension	lumbar_bending	lumbar_rotation
      0.45700000	     -6.79526413	     -2.10269889	      3.01772669	     -0.76550566	      1.04381009	      0.29112780	     30.34908645	      0.18051080	     -8.76798261	     -9.18083909	      8.46895004	      0.56821335	      1.26329953	     -6.35528562	     -3.02509163	      2.59246349	    -13.66045321	     22.06558205	      8.16551719	      1.09492182	     -3.19566350	      1.14969126	     -3.19560801
      0.46116667	     -6.71243434	     -2.07582720	      3.15622264	     -0.75886646	      1.04273955	      0.29129536	     30.26705945	      0.13591474	     -8.75626303	     -9.11562838	      8.22408874	      0.55006423	      5.26524061	     -6.50937044	     -3.07764676	      2.51173570	    -14.32218970	     22.13949187	      8.48820008	      3.33159406	     -3.23539417	      1.13632823	     -3.20571161
      0.46533333	     -6.62809337	     -2.04095935	      3.32560511	     -0.75220701	      1.04172672	      0.29140129	     30.20857329	      0.06341594	     -8.82129703	     -9.22499197	      8.15169646	      0.55596610	      5.26837450	     -6.65441333	     -3.11442228	      2.58087170	    -14.99757227	     22.16476338	      8.64509987	      3.36882880	     -3.27041284	      1.12605722	     -3.29227647
      0.46950000	     -6.51634685	     -2.05898209	      3.46658742	     -0.74547853	      1.04076668	      0.29158116	     30.10768439	      0.06500887	     -8.84898977	     -9.39044198	      8.03670801	      0.55625857	      5.28422747	     -6.75774806	     -3.24382300	      2.35537860	    -15.82939347	     22.24541057	      9.21854313	      3.51531864	     -3.33013331	      1.19890887	     -3.40178197
      0.47366667	     -6.39822590	     -2.06573123	      3.60807592	     -0.73873879	      1.03986830	      0.29176503	     30.00824202	      0.05667216	     -8.86972328	     -9.65788047	      7.86780340	      0.46382373	      5.30374872	     -6.85044880	     -3.35766130	      2.20446485	    -16.69678408	     22.26675655	      9.67837994	      3.71657136	     -3.39163819	      1.24471213	     -3.40253066
      0.47783333	     -6.27173843	     -2.07863436	      3.73948366	     -0.73196808	      1.03902677	      0.29196699	     29.90732271	      0.05937976	     -8.88471200	    -10.02204020	      7.66864382	      0.32678370	      5.32971763	     -6.92572979	     -3.48547997	      2.02589820	    -17.61505938	     22.24354511	     10.16739806	      3.99067943	     -3.46213591	      1.30921406	     -3.41366971
      0.48200000	     -6.11930801	     -2.09400468	      3.86239574	     -0.72519066	      1.03824886	      0.29219849	     29.78772995	      0.07064271	     -8.89231773	    -10.47599880	      7.44873976	      0.16320609	      5.35999518	     -6.99488848	     -3.62492989	      1.82476739	    -18.60323912	     22.18468384	     10.67256130	      4.31984714	     -3.56350843	      1.37792418	     -3.40263800
      0.48616667	     -5.98135041	     -2.12023690	      3.98615658	     -0.71837222	      1.03750994	      0.29243713	     29.67685733	      0.09590630	     -8.86444335	    -10.98276485	      7.13985982	     -0.15686368	      5.73826688	     -7.02554704	     -3.77726091	      1.66287412	    -19.62176089	     21.95828629	     11.06725465	      8.22817300	     -3.63577179	      1.46540329	     -3.34088917
      0.49033333	     -5.80024732	     -2.12780116	      4.08975623	     -0.71158418	      1.03684942	      0.29271695	     29.55977779	      0.10298563	     -8.89925344	    -11.63478589	      6.92239783	     -0.27454526	      5.73606063	     -7.05448794	     -3.92294867	      1.41974793	    -20.74877892	     21.80413849	     11.59413765	      8.31919877	     -3.77111724	      1.52516177	     -3.35277333
      0.49450000	     -5.65457098	     -2.14814821	      4.18505135	     -0.70476672	      1.03617044	      0.29302874	     29.47715106	      0.13015768	     -8.87069537	    -12.32831283	      6.62610721	     -0.56214942	      5.73164793	     -7.01021367	     -4.08725018	      1.17352501	    -21.94003896	     21.57450418	     12.11675833	      8.48419389	     -3.85005342	      1.60404476	     -3.30572302
      0.49866667	     -5.48173883	     -2.16981011	      4.27028930	     -0.69796096	      1.03557309	      0.29338124	     29.37390426	      0.16686053	     -8.81547827	    -13.08267852	      6.32352609	     -0.87267028	      5.72611606	     -6.95814265	     -4.26282942	      0.91495679	    -23.19331872	     21.28400379	     12.64495247	      8.71620257	     -3.97514175	      1.69705929	     -3.24249218
      0.50283333	     -5.29791674	     -2.19115753	      4.33943330	     -0.69114459	      1.03503069	      0.29376931	     29.27135633	      0.21061052	     -8.74918391	    -13.90017199	      6.00110194	     -1.23349997	      5.68782439	     -6.88888693	     -4.44301187	      0.65099945	    -24.49179735	     20.81332775	     13.07876817	     12.61264248	     -4.09045918	      1.78793459	     -3.16260690
      0.50700000	     -5.10998541	     -2.21227694	      4.41450989	     -0.68436704	      1.03451958	      0.29416993	     29.17949948	      0.24845510	     -8.69660206	    -14.78257110	      5.73726639	     -1.55037507	      5.67486888	     -6.76870772	     -4.63359670	      0.38703605	    -25.89315307	     20.39388410	     13.56897253	     12.69100074	     -4.22508792	      1.87268530	     -3.08868554
      0.51116667	     -4.92502533	     -2.23565866	      4.46749245	     -0.67759572	      1.03403168	      0.29462403	     29.09986893	      0.30155680	     -8.59800296	    -15.70355600	      5.46435798	     -1.92331330	      5.65178684	     -6.61312043	     -4.83152662	      0.11232860	    -27.34964116	     19.88166710	     14.04434454	     12.84211125	     -4.35343325	      1.96767137	     -2.98954216
      0.51533333	     -4.74384200	     -2.25342923	      4.51456296	     -0.67084858	      1.03357181	      0.29510916	     29.03470112	      0.35185676	     -8.48206506	    -16.66950402	      5.22638756	     -2.29533907	      5.61790849	     -6.41070138	     -5.02926732	     -0.15630676	    -28.87112638	     19.28605966	     14.48169522	     13.06158260	     -4.47860530	      2.05429868	     -2.88191662
      0.51950000	     -4.56437050	     -2.27629072	      4.55497115	     -0.66411835	      1.03315118	      0.29561669	     28.97391650	      0.41414955	     -8.33790055	    -17.65579141	      5.02204334	     -2.69085655	      5.02396273	     -6.17674391	     -5.23039142	     -0.38035582	    -30.42552422	     18.50995245	     14.77753634	     17.00245397	     -4.60236110	      2.16043649	     -2.74489399
      0.52366667	     -4.37052645	     -2.29090798	      4.59107453	     -0.65744022	      1.03276462	      0.29615029	     28.91277330	      0.46692300	     -8.21484723	    -18.68632306	      4.89895481	     -3.00172488	      5.00831083	     -5.90688614	     -5.43549907	     -0.62572964	    -32.06716846	     17.76285629	     15.14420351	     17.06266286	     -4.75417241	      2.24602638	     -2.65255421
      0.52783333	     -4.18563457	     -2.31382559	      4.62007337	     -0.65078529	      1.03239615	      0.29670023	     28.85663451	      0.53665768	     -8.06015275	    -19.71391230	      4.80367078	     -3.35016175	      4.97635866	     -5.58982587	     -5.65018868	     -0.85030418	    -33.76391584	     16.91742013	     15.44091264	     17.17185712	     -4.89048231	      2.34166967	     -2.52700980
      0.53200000	     -4.01425906	     -2.33808579	      4.64411973	     -0.64415749	      1.03203919	      0.29726305	     28.81216807	      0.61129372	     -7.89490493	    -20.74326239	      4.76340927	     -3.68412554	      4.92676123	     -5.22108150	     -5.86541314	     -1.04928207	    -35.50703773	     15.99645874	     15.67775162	     17.32879037	     -5.01095118	      2.44242769	     -2.39604579
      0.53616667	     -3.84248133	     -2.39777468	      4.69246849	     -0.63755404	      1.03173550	      0.29780228	     28.73967978	      0.72186590	     -7.73583575	    -21.71936614	      4.76150097	     -4.08528841	      4.72491186	     -4.80172996	     -6.12614308	     -1.20932768	    -37.30426693	     15.01455174	     15.85418038	     17.92863818	     -5.13199777	      2.57635840	     -2.18979328
      0.54033333	     -3.65242696	     -2.40164353	      4.68220572	     -0.63101701	      1.03147636	      0.29842119	     28.67145176	      0.79958439	     -7.53253206	    -22.75126094	      4.88124815	     -4.31902274	      3.65487771	     -4.40106193	     -6.31405842	     -1.38707347	    -39.08613883	     13.86831842	     15.89966661	     20.78027279	     -5.29836271	      2.66500211	     -2.04675699
      0.54450000	     -3.47671610	     -2.43237409	      4.71879830	     -0.62451171	      1.03124233	      0.29893185	     28.58938995	      0.87832967	     -7.41140609	    -23.73047568	      5.05472737	     -4.49504357	      3.65093511	     -3.93076730	     -6.52930840	     -1.48975346	    -40.92844540	     12.72803701	     15.92320938	     20.78204186	     -5.43983253	      2.79093219	     -2.00287456
      0.54866667	     -3.29448244	     -2.47323415	      4.74751764	     -0.61805130	      1.03104996	      0.29944854	     28.48034465	      0.97834061	     -7.27542142	    -24.66873758	      5.27147538	     -4.70247854	      3.63929408	     -3.43702258	     -6.75426978	     -1.58836106	    -42.79199982	     11.58812699	     15.89510713	     20.78342969	     -5.58744423	      2.92673893	     -1.91505339
      0.55283333	     -3.13377414	     -2.52754205	      4.77444660	     -0.61161603	      1.03087211	      0.29995465	     28.36798869	      1.09718744	     -7.13594143	    -25.55310797	      5.52597233	     -4.90655296	      3.61920643	     -2.89081879	     -6.98994206	     -1.67470119	    -44.67149288	     10.39001128	     15.79999925	     20.78064685	     -5.70957381	      3.07495629	     -1.80519443
